# xmcd
#
# Track frame offsets: 
#        150
#        13395
#        28482
#        40616
#        59174
#        74451
#        88101
#        108070
#        120472
#        131994
#        145152
#
# Disc length: 2155 seconds
#
# Revision: 0
# Processed by: cddbd v1.5.2PL0 Copyright (c) Steve Scherf et al.
# Submitted via: ExactAudioCopy v0.99pb5
#
DISCID=a508690b
DTITLE=Arbee Stidham - A Time For Bules
DYEAR=1972
DGENRE=Blues
TTITLE0=Meet Me Halfway
TTITLE1=Let Me Love You
TTITLE2=Mr. Texas and Pacific (Find Me Baby)
TTITLE3=Wee Hours
TTITLE4=Take Your hand Off My Knee
TTITLE5=I Don't Want You Baby
TTITLE6=Standin' In My Window
TTITLE7=Don't Look For Me Baby
TTITLE8=Come A Little Closer
TTITLE9=Let's Take The Long Way Home
TTITLE10=I Want Rock
EXTD=
EXTT0=
EXTT1=
EXTT2=
EXTT3=
EXTT4=
EXTT5=
EXTT6=
EXTT7=
EXTT8=
EXTT9=
EXTT10=
PLAYORDER=
